<mxfile host="app.diagrams.net" modified="2023-07-07T01:57:52.070Z" agent="Mozilla/5.0 (Macintosh; Intel Mac OS X 10_15_7) AppleWebKit/537.36 (KHTML, like Gecko) Chrome/113.0.0.0 Safari/537.36" etag="7pWv4aYyiJ8VwGTNKlqL" version="21.5.2" type="github" pages="2">
  <diagram id="6a731a19-8d31-9384-78a2-239565b7b9f0" name="Page-1">
    <mxGraphModel dx="2508" dy="1426" grid="1" gridSize="10" guides="1" tooltips="1" connect="1" arrows="1" fold="1" page="1" pageScale="1" pageWidth="1169" pageHeight="827" background="none" math="0" shadow="0">
      <root>
        <mxCell id="0" />
        <mxCell id="1" parent="0" />
        <mxCell id="zlBRK5w3M_IOJP67CKGf-51" value="" style="rounded=0;whiteSpace=wrap;html=1;" vertex="1" parent="1">
          <mxGeometry x="930" y="1710" width="390" height="395" as="geometry" />
        </mxCell>
        <mxCell id="2" value="开始" style="shape=mxgraph.flowchart.terminator;strokeWidth=2;gradientColor=none;gradientDirection=north;fontStyle=0;html=1;" parent="1" vertex="1">
          <mxGeometry x="260" y="60" width="120" height="30" as="geometry" />
        </mxCell>
        <mxCell id="3" value="抢占分布式锁" style="shape=mxgraph.flowchart.data;strokeWidth=2;gradientColor=none;gradientDirection=north;fontStyle=0;html=1;" parent="1" vertex="1">
          <mxGeometry x="240.5" y="130" width="159" height="80" as="geometry" />
        </mxCell>
        <mxCell id="7" style="fontStyle=1;strokeColor=#003366;strokeWidth=1;html=1;" parent="1" source="2" target="3" edge="1">
          <mxGeometry relative="1" as="geometry" />
        </mxCell>
        <mxCell id="8" style="fontStyle=1;strokeColor=#003366;strokeWidth=1;html=1;" parent="1" source="3" edge="1">
          <mxGeometry relative="1" as="geometry">
            <mxPoint x="320" y="250" as="targetPoint" />
          </mxGeometry>
        </mxCell>
        <mxCell id="11" value="yes" style="text;fontStyle=0;html=1;strokeColor=none;gradientColor=none;fillColor=none;strokeWidth=2;" parent="1" vertex="1">
          <mxGeometry x="370" y="390" width="40" height="26" as="geometry" />
        </mxCell>
        <mxCell id="u9zpIPj7ubAK2xr9crSM-64" style="edgeStyle=orthogonalEdgeStyle;rounded=0;orthogonalLoop=1;jettySize=auto;html=1;exitX=0.5;exitY=1;exitDx=0;exitDy=0;exitPerimeter=0;entryX=0.5;entryY=0;entryDx=0;entryDy=0;entryPerimeter=0;" parent="1" source="u9zpIPj7ubAK2xr9crSM-55" target="u9zpIPj7ubAK2xr9crSM-57" edge="1">
          <mxGeometry relative="1" as="geometry" />
        </mxCell>
        <mxCell id="u9zpIPj7ubAK2xr9crSM-79" style="edgeStyle=orthogonalEdgeStyle;rounded=0;orthogonalLoop=1;jettySize=auto;html=1;" parent="1" source="u9zpIPj7ubAK2xr9crSM-55" edge="1">
          <mxGeometry relative="1" as="geometry">
            <mxPoint x="530" y="285" as="targetPoint" />
          </mxGeometry>
        </mxCell>
        <mxCell id="u9zpIPj7ubAK2xr9crSM-80" value="否" style="edgeLabel;html=1;align=center;verticalAlign=middle;resizable=0;points=[];" parent="u9zpIPj7ubAK2xr9crSM-79" vertex="1" connectable="0">
          <mxGeometry x="0.2082" y="-1" relative="1" as="geometry">
            <mxPoint as="offset" />
          </mxGeometry>
        </mxCell>
        <mxCell id="u9zpIPj7ubAK2xr9crSM-55" value="是否获取分布式锁" style="shape=mxgraph.flowchart.decision;strokeWidth=2;gradientColor=none;gradientDirection=north;fontStyle=0;html=1;" parent="1" vertex="1">
          <mxGeometry x="240.5" y="250" width="159" height="70" as="geometry" />
        </mxCell>
        <mxCell id="u9zpIPj7ubAK2xr9crSM-65" style="edgeStyle=orthogonalEdgeStyle;rounded=0;orthogonalLoop=1;jettySize=auto;html=1;entryX=0.5;entryY=0;entryDx=0;entryDy=0;entryPerimeter=0;" parent="1" source="u9zpIPj7ubAK2xr9crSM-57" target="u9zpIPj7ubAK2xr9crSM-58" edge="1">
          <mxGeometry relative="1" as="geometry" />
        </mxCell>
        <mxCell id="u9zpIPj7ubAK2xr9crSM-57" value="检查能开token ttl" style="shape=mxgraph.flowchart.data;strokeWidth=2;gradientColor=none;gradientDirection=north;fontStyle=0;html=1;" parent="1" vertex="1">
          <mxGeometry x="240.5" y="374" width="159" height="80" as="geometry" />
        </mxCell>
        <mxCell id="u9zpIPj7ubAK2xr9crSM-66" style="edgeStyle=orthogonalEdgeStyle;rounded=0;orthogonalLoop=1;jettySize=auto;html=1;exitX=0.5;exitY=1;exitDx=0;exitDy=0;exitPerimeter=0;" parent="1" source="u9zpIPj7ubAK2xr9crSM-58" target="u9zpIPj7ubAK2xr9crSM-60" edge="1">
          <mxGeometry relative="1" as="geometry" />
        </mxCell>
        <mxCell id="u9zpIPj7ubAK2xr9crSM-72" style="edgeStyle=orthogonalEdgeStyle;rounded=0;orthogonalLoop=1;jettySize=auto;html=1;exitX=0;exitY=0.5;exitDx=0;exitDy=0;exitPerimeter=0;entryX=0.095;entryY=0.5;entryDx=0;entryDy=0;entryPerimeter=0;" parent="1" source="u9zpIPj7ubAK2xr9crSM-58" target="u9zpIPj7ubAK2xr9crSM-59" edge="1">
          <mxGeometry relative="1" as="geometry">
            <Array as="points">
              <mxPoint x="160" y="550" />
              <mxPoint x="160" y="810" />
            </Array>
          </mxGeometry>
        </mxCell>
        <mxCell id="u9zpIPj7ubAK2xr9crSM-73" value="否" style="edgeLabel;html=1;align=center;verticalAlign=middle;resizable=0;points=[];" parent="u9zpIPj7ubAK2xr9crSM-72" vertex="1" connectable="0">
          <mxGeometry x="-0.7608" relative="1" as="geometry">
            <mxPoint as="offset" />
          </mxGeometry>
        </mxCell>
        <mxCell id="u9zpIPj7ubAK2xr9crSM-58" value="ttl&amp;gt;60m" style="shape=mxgraph.flowchart.decision;strokeWidth=2;gradientColor=none;gradientDirection=north;fontStyle=0;html=1;" parent="1" vertex="1">
          <mxGeometry x="240.5" y="515" width="159" height="70" as="geometry" />
        </mxCell>
        <mxCell id="u9zpIPj7ubAK2xr9crSM-68" style="edgeStyle=orthogonalEdgeStyle;rounded=0;orthogonalLoop=1;jettySize=auto;html=1;exitX=0.5;exitY=1;exitDx=0;exitDy=0;exitPerimeter=0;entryX=0.5;entryY=0;entryDx=0;entryDy=0;entryPerimeter=0;" parent="1" source="u9zpIPj7ubAK2xr9crSM-59" target="u9zpIPj7ubAK2xr9crSM-63" edge="1">
          <mxGeometry relative="1" as="geometry" />
        </mxCell>
        <mxCell id="u9zpIPj7ubAK2xr9crSM-59" value="调用主机房接口获取能开&lt;br&gt;token" style="shape=mxgraph.flowchart.data;strokeWidth=2;gradientColor=none;gradientDirection=north;fontStyle=0;html=1;" parent="1" vertex="1">
          <mxGeometry x="240.5" y="770" width="159" height="80" as="geometry" />
        </mxCell>
        <mxCell id="u9zpIPj7ubAK2xr9crSM-67" value="是" style="edgeStyle=orthogonalEdgeStyle;rounded=0;orthogonalLoop=1;jettySize=auto;html=1;exitX=0.5;exitY=1;exitDx=0;exitDy=0;exitPerimeter=0;" parent="1" source="u9zpIPj7ubAK2xr9crSM-60" target="u9zpIPj7ubAK2xr9crSM-59" edge="1">
          <mxGeometry relative="1" as="geometry" />
        </mxCell>
        <mxCell id="u9zpIPj7ubAK2xr9crSM-77" style="edgeStyle=orthogonalEdgeStyle;rounded=0;orthogonalLoop=1;jettySize=auto;html=1;exitX=1;exitY=0.5;exitDx=0;exitDy=0;exitPerimeter=0;" parent="1" source="u9zpIPj7ubAK2xr9crSM-60" edge="1">
          <mxGeometry relative="1" as="geometry">
            <mxPoint x="530" y="675" as="targetPoint" />
          </mxGeometry>
        </mxCell>
        <mxCell id="u9zpIPj7ubAK2xr9crSM-78" value="否" style="edgeLabel;html=1;align=center;verticalAlign=middle;resizable=0;points=[];" parent="u9zpIPj7ubAK2xr9crSM-77" vertex="1" connectable="0">
          <mxGeometry x="0.1775" y="-2" relative="1" as="geometry">
            <mxPoint as="offset" />
          </mxGeometry>
        </mxCell>
        <mxCell id="u9zpIPj7ubAK2xr9crSM-60" value="token失效探测" style="shape=mxgraph.flowchart.decision;strokeWidth=2;gradientColor=none;gradientDirection=north;fontStyle=0;html=1;" parent="1" vertex="1">
          <mxGeometry x="240.5" y="640" width="159" height="70" as="geometry" />
        </mxCell>
        <mxCell id="u9zpIPj7ubAK2xr9crSM-61" value="主机房获取能开接口是否成功" style="shape=mxgraph.flowchart.decision;strokeWidth=2;gradientColor=none;gradientDirection=north;fontStyle=0;html=1;" parent="1" vertex="1">
          <mxGeometry x="240.5" y="900" width="159" height="70" as="geometry" />
        </mxCell>
        <mxCell id="u9zpIPj7ubAK2xr9crSM-74" style="edgeStyle=orthogonalEdgeStyle;rounded=0;orthogonalLoop=1;jettySize=auto;html=1;exitX=0.905;exitY=0.5;exitDx=0;exitDy=0;exitPerimeter=0;entryX=0.905;entryY=0.5;entryDx=0;entryDy=0;entryPerimeter=0;" parent="1" source="u9zpIPj7ubAK2xr9crSM-62" target="3" edge="1">
          <mxGeometry relative="1" as="geometry">
            <Array as="points">
              <mxPoint x="530" y="1070" />
              <mxPoint x="530" y="170" />
            </Array>
          </mxGeometry>
        </mxCell>
        <mxCell id="u9zpIPj7ubAK2xr9crSM-62" value="更新缓存ttl" style="shape=mxgraph.flowchart.data;strokeWidth=2;gradientColor=none;gradientDirection=north;fontStyle=0;html=1;" parent="1" vertex="1">
          <mxGeometry x="240.5" y="1030" width="159" height="80" as="geometry" />
        </mxCell>
        <mxCell id="u9zpIPj7ubAK2xr9crSM-69" value="是" style="edgeStyle=orthogonalEdgeStyle;rounded=0;orthogonalLoop=1;jettySize=auto;html=1;exitX=0.5;exitY=1;exitDx=0;exitDy=0;exitPerimeter=0;entryX=0.5;entryY=0;entryDx=0;entryDy=0;entryPerimeter=0;" parent="1" source="u9zpIPj7ubAK2xr9crSM-63" target="u9zpIPj7ubAK2xr9crSM-62" edge="1">
          <mxGeometry relative="1" as="geometry" />
        </mxCell>
        <mxCell id="u9zpIPj7ubAK2xr9crSM-75" style="edgeStyle=orthogonalEdgeStyle;rounded=0;orthogonalLoop=1;jettySize=auto;html=1;exitX=1;exitY=0.5;exitDx=0;exitDy=0;exitPerimeter=0;entryX=0.905;entryY=0.5;entryDx=0;entryDy=0;entryPerimeter=0;" parent="1" source="u9zpIPj7ubAK2xr9crSM-63" target="3" edge="1">
          <mxGeometry relative="1" as="geometry">
            <Array as="points">
              <mxPoint x="530" y="935" />
              <mxPoint x="530" y="170" />
            </Array>
          </mxGeometry>
        </mxCell>
        <mxCell id="u9zpIPj7ubAK2xr9crSM-83" value="否" style="edgeLabel;html=1;align=center;verticalAlign=middle;resizable=0;points=[];" parent="u9zpIPj7ubAK2xr9crSM-75" vertex="1" connectable="0">
          <mxGeometry x="-0.8985" y="3" relative="1" as="geometry">
            <mxPoint as="offset" />
          </mxGeometry>
        </mxCell>
        <mxCell id="u9zpIPj7ubAK2xr9crSM-63" value="主机房获取能开接口是否成功" style="shape=mxgraph.flowchart.decision;strokeWidth=2;gradientColor=none;gradientDirection=north;fontStyle=0;html=1;" parent="1" vertex="1">
          <mxGeometry x="240.5" y="900" width="159" height="70" as="geometry" />
        </mxCell>
        <mxCell id="u9zpIPj7ubAK2xr9crSM-81" value="释放分布式锁" style="shape=mxgraph.flowchart.data;strokeWidth=2;gradientColor=none;gradientDirection=north;fontStyle=0;html=1;" parent="1" vertex="1">
          <mxGeometry x="450" y="400" width="159" height="60" as="geometry" />
        </mxCell>
        <mxCell id="u9zpIPj7ubAK2xr9crSM-82" value="线程sleep1s" style="shape=mxgraph.flowchart.data;strokeWidth=2;gradientColor=none;gradientDirection=north;fontStyle=0;html=1;" parent="1" vertex="1">
          <mxGeometry x="450" y="200" width="159" height="50" as="geometry" />
        </mxCell>
        <mxCell id="bbXVy-CYYOFWgaDCfxmX-11" value="" style="rounded=0;whiteSpace=wrap;html=1;" vertex="1" parent="1">
          <mxGeometry x="770" y="454" width="390" height="396" as="geometry" />
        </mxCell>
        <mxCell id="bbXVy-CYYOFWgaDCfxmX-12" value="" style="rounded=0;whiteSpace=wrap;html=1;" vertex="1" parent="1">
          <mxGeometry x="1345" y="454" width="390" height="395" as="geometry" />
        </mxCell>
        <mxCell id="bbXVy-CYYOFWgaDCfxmX-13" value="&lt;font style=&quot;font-size: 16px;&quot;&gt;呼池&lt;/font&gt;" style="text;html=1;align=center;verticalAlign=middle;resizable=0;points=[];autosize=1;strokeColor=none;fillColor=none;fontSize=16;" vertex="1" parent="1">
          <mxGeometry x="765" y="460" width="60" height="30" as="geometry" />
        </mxCell>
        <mxCell id="bbXVy-CYYOFWgaDCfxmX-14" value="&lt;span style=&quot;font-size: 16px;&quot;&gt;苏州机房&lt;/span&gt;" style="text;html=1;align=center;verticalAlign=middle;resizable=0;points=[];autosize=1;strokeColor=none;fillColor=none;fontSize=16;" vertex="1" parent="1">
          <mxGeometry x="1345" y="455" width="90" height="30" as="geometry" />
        </mxCell>
        <mxCell id="bbXVy-CYYOFWgaDCfxmX-27" style="edgeStyle=orthogonalEdgeStyle;rounded=0;orthogonalLoop=1;jettySize=auto;html=1;entryX=0.5;entryY=0;entryDx=0;entryDy=0;" edge="1" parent="1">
          <mxGeometry relative="1" as="geometry">
            <mxPoint x="998" y="550" as="sourcePoint" />
            <mxPoint x="998" y="750" as="targetPoint" />
            <Array as="points">
              <mxPoint x="998" y="690" />
              <mxPoint x="998" y="690" />
            </Array>
          </mxGeometry>
        </mxCell>
        <mxCell id="zlBRK5w3M_IOJP67CKGf-11" value="getToken" style="edgeLabel;html=1;align=center;verticalAlign=middle;resizable=0;points=[];" vertex="1" connectable="0" parent="bbXVy-CYYOFWgaDCfxmX-27">
          <mxGeometry x="-0.18" y="-3" relative="1" as="geometry">
            <mxPoint as="offset" />
          </mxGeometry>
        </mxCell>
        <mxCell id="bbXVy-CYYOFWgaDCfxmX-29" style="edgeStyle=orthogonalEdgeStyle;rounded=0;orthogonalLoop=1;jettySize=auto;html=1;entryX=0.851;entryY=0;entryDx=0;entryDy=0;entryPerimeter=0;" edge="1" parent="1">
          <mxGeometry relative="1" as="geometry">
            <mxPoint x="1095" y="550" as="sourcePoint" />
            <mxPoint x="1094.8899999999999" y="910" as="targetPoint" />
            <Array as="points">
              <mxPoint x="1095" y="650" />
              <mxPoint x="1095" y="650" />
            </Array>
          </mxGeometry>
        </mxCell>
        <mxCell id="zlBRK5w3M_IOJP67CKGf-13" value="getToken" style="edgeLabel;html=1;align=center;verticalAlign=middle;resizable=0;points=[];" vertex="1" connectable="0" parent="bbXVy-CYYOFWgaDCfxmX-29">
          <mxGeometry x="-0.5833" y="1" relative="1" as="geometry">
            <mxPoint as="offset" />
          </mxGeometry>
        </mxCell>
        <mxCell id="bbXVy-CYYOFWgaDCfxmX-37" style="edgeStyle=orthogonalEdgeStyle;rounded=0;orthogonalLoop=1;jettySize=auto;html=1;entryX=0.16;entryY=0.04;entryDx=0;entryDy=0;entryPerimeter=0;" edge="1" parent="1" source="bbXVy-CYYOFWgaDCfxmX-15" target="bbXVy-CYYOFWgaDCfxmX-20">
          <mxGeometry relative="1" as="geometry">
            <Array as="points">
              <mxPoint x="1426" y="540" />
            </Array>
          </mxGeometry>
        </mxCell>
        <mxCell id="zlBRK5w3M_IOJP67CKGf-15" value="getToken" style="edgeLabel;html=1;align=center;verticalAlign=middle;resizable=0;points=[];" vertex="1" connectable="0" parent="bbXVy-CYYOFWgaDCfxmX-37">
          <mxGeometry x="-0.3775" y="3" relative="1" as="geometry">
            <mxPoint as="offset" />
          </mxGeometry>
        </mxCell>
        <mxCell id="bbXVy-CYYOFWgaDCfxmX-15" value="tokenService" style="rounded=0;whiteSpace=wrap;html=1;fontSize=16;" vertex="1" parent="1">
          <mxGeometry x="790" y="500" width="350" height="50" as="geometry" />
        </mxCell>
        <mxCell id="bbXVy-CYYOFWgaDCfxmX-17" value="redis" style="rounded=0;whiteSpace=wrap;html=1;fontSize=16;" vertex="1" parent="1">
          <mxGeometry x="790" y="610" width="150" height="50" as="geometry" />
        </mxCell>
        <mxCell id="bbXVy-CYYOFWgaDCfxmX-18" value="Ummp-gateway" style="rounded=0;whiteSpace=wrap;html=1;fontSize=16;" vertex="1" parent="1">
          <mxGeometry x="790" y="750" width="270" height="50" as="geometry" />
        </mxCell>
        <mxCell id="bbXVy-CYYOFWgaDCfxmX-19" value="一级能开" style="rounded=0;whiteSpace=wrap;html=1;fontSize=16;" vertex="1" parent="1">
          <mxGeometry x="770" y="910" width="390" height="50" as="geometry" />
        </mxCell>
        <mxCell id="zlBRK5w3M_IOJP67CKGf-63" style="edgeStyle=orthogonalEdgeStyle;rounded=0;orthogonalLoop=1;jettySize=auto;html=1;entryX=0.5;entryY=1;entryDx=0;entryDy=0;" edge="1" parent="1" source="bbXVy-CYYOFWgaDCfxmX-20" target="zlBRK5w3M_IOJP67CKGf-62">
          <mxGeometry relative="1" as="geometry">
            <Array as="points">
              <mxPoint x="1605" y="740" />
              <mxPoint x="1605" y="740" />
            </Array>
          </mxGeometry>
        </mxCell>
        <mxCell id="zlBRK5w3M_IOJP67CKGf-64" value="read tokenService url" style="edgeLabel;html=1;align=center;verticalAlign=middle;resizable=0;points=[];" vertex="1" connectable="0" parent="zlBRK5w3M_IOJP67CKGf-63">
          <mxGeometry x="-0.2" y="-2" relative="1" as="geometry">
            <mxPoint as="offset" />
          </mxGeometry>
        </mxCell>
        <mxCell id="bbXVy-CYYOFWgaDCfxmX-20" value="Ummp-gateway" style="rounded=0;whiteSpace=wrap;html=1;fontSize=16;" vertex="1" parent="1">
          <mxGeometry x="1370" y="750" width="350" height="50" as="geometry" />
        </mxCell>
        <mxCell id="bbXVy-CYYOFWgaDCfxmX-21" value="缓&lt;br&gt;存&lt;br&gt;token" style="shape=doubleArrow;direction=south;whiteSpace=wrap;html=1;" vertex="1" parent="1">
          <mxGeometry x="835" y="550" width="60" height="60" as="geometry" />
        </mxCell>
        <mxCell id="bbXVy-CYYOFWgaDCfxmX-28" style="edgeStyle=orthogonalEdgeStyle;rounded=0;orthogonalLoop=1;jettySize=auto;html=1;entryX=0.5;entryY=0;entryDx=0;entryDy=0;startArrow=classic;startFill=1;endArrow=none;endFill=0;dashed=1;" edge="1" parent="1">
          <mxGeometry relative="1" as="geometry">
            <mxPoint x="1033" y="550" as="sourcePoint" />
            <mxPoint x="1033" y="750" as="targetPoint" />
            <Array as="points">
              <mxPoint x="1033" y="690" />
              <mxPoint x="1033" y="690" />
            </Array>
          </mxGeometry>
        </mxCell>
        <mxCell id="zlBRK5w3M_IOJP67CKGf-12" value="token" style="edgeLabel;html=1;align=center;verticalAlign=middle;resizable=0;points=[];" vertex="1" connectable="0" parent="bbXVy-CYYOFWgaDCfxmX-28">
          <mxGeometry x="0.29" y="-1" relative="1" as="geometry">
            <mxPoint as="offset" />
          </mxGeometry>
        </mxCell>
        <mxCell id="bbXVy-CYYOFWgaDCfxmX-30" style="edgeStyle=orthogonalEdgeStyle;rounded=0;orthogonalLoop=1;jettySize=auto;html=1;entryX=0.851;entryY=0;entryDx=0;entryDy=0;entryPerimeter=0;startArrow=classic;startFill=1;endArrow=none;endFill=0;dashed=1;" edge="1" parent="1">
          <mxGeometry relative="1" as="geometry">
            <mxPoint x="1125" y="551" as="sourcePoint" />
            <mxPoint x="1124.8899999999999" y="911" as="targetPoint" />
            <Array as="points">
              <mxPoint x="1125" y="651" />
              <mxPoint x="1125" y="651" />
            </Array>
          </mxGeometry>
        </mxCell>
        <mxCell id="zlBRK5w3M_IOJP67CKGf-14" value="token" style="edgeLabel;html=1;align=center;verticalAlign=middle;resizable=0;points=[];" vertex="1" connectable="0" parent="bbXVy-CYYOFWgaDCfxmX-30">
          <mxGeometry x="0.0833" y="1" relative="1" as="geometry">
            <mxPoint as="offset" />
          </mxGeometry>
        </mxCell>
        <mxCell id="bbXVy-CYYOFWgaDCfxmX-40" style="edgeStyle=orthogonalEdgeStyle;rounded=0;orthogonalLoop=1;jettySize=auto;html=1;endArrow=none;endFill=0;startArrow=classic;startFill=1;dashed=1;" edge="1" parent="1">
          <mxGeometry relative="1" as="geometry">
            <mxPoint x="1140" y="515" as="sourcePoint" />
            <mxPoint x="1460" y="750" as="targetPoint" />
            <Array as="points">
              <mxPoint x="1460" y="515" />
              <mxPoint x="1460" y="750" />
            </Array>
          </mxGeometry>
        </mxCell>
        <mxCell id="zlBRK5w3M_IOJP67CKGf-16" value="token" style="edgeLabel;html=1;align=center;verticalAlign=middle;resizable=0;points=[];" vertex="1" connectable="0" parent="bbXVy-CYYOFWgaDCfxmX-40">
          <mxGeometry x="0.5207" y="-2" relative="1" as="geometry">
            <mxPoint as="offset" />
          </mxGeometry>
        </mxCell>
        <mxCell id="zlBRK5w3M_IOJP67CKGf-17" value="" style="rounded=0;whiteSpace=wrap;html=1;" vertex="1" parent="1">
          <mxGeometry x="1065" y="1080" width="390" height="396" as="geometry" />
        </mxCell>
        <mxCell id="zlBRK5w3M_IOJP67CKGf-18" value="苏州机房" style="text;html=1;align=center;verticalAlign=middle;resizable=0;points=[];autosize=1;strokeColor=none;fillColor=none;fontSize=16;" vertex="1" parent="1">
          <mxGeometry x="1060" y="1086" width="90" height="30" as="geometry" />
        </mxCell>
        <mxCell id="zlBRK5w3M_IOJP67CKGf-19" style="edgeStyle=orthogonalEdgeStyle;rounded=0;orthogonalLoop=1;jettySize=auto;html=1;entryX=0.5;entryY=0;entryDx=0;entryDy=0;" edge="1" parent="1">
          <mxGeometry relative="1" as="geometry">
            <mxPoint x="1293" y="1176" as="sourcePoint" />
            <mxPoint x="1293" y="1376" as="targetPoint" />
            <Array as="points">
              <mxPoint x="1293" y="1316" />
              <mxPoint x="1293" y="1316" />
            </Array>
          </mxGeometry>
        </mxCell>
        <mxCell id="zlBRK5w3M_IOJP67CKGf-20" value="getToken" style="edgeLabel;html=1;align=center;verticalAlign=middle;resizable=0;points=[];" vertex="1" connectable="0" parent="zlBRK5w3M_IOJP67CKGf-19">
          <mxGeometry x="-0.18" y="-3" relative="1" as="geometry">
            <mxPoint as="offset" />
          </mxGeometry>
        </mxCell>
        <mxCell id="zlBRK5w3M_IOJP67CKGf-21" style="edgeStyle=orthogonalEdgeStyle;rounded=0;orthogonalLoop=1;jettySize=auto;html=1;entryX=0.851;entryY=0;entryDx=0;entryDy=0;entryPerimeter=0;" edge="1" parent="1">
          <mxGeometry relative="1" as="geometry">
            <mxPoint x="1390" y="1176" as="sourcePoint" />
            <mxPoint x="1389.8899999999999" y="1536" as="targetPoint" />
            <Array as="points">
              <mxPoint x="1390" y="1276" />
              <mxPoint x="1390" y="1276" />
            </Array>
          </mxGeometry>
        </mxCell>
        <mxCell id="zlBRK5w3M_IOJP67CKGf-22" value="getToken" style="edgeLabel;html=1;align=center;verticalAlign=middle;resizable=0;points=[];" vertex="1" connectable="0" parent="zlBRK5w3M_IOJP67CKGf-21">
          <mxGeometry x="-0.5833" y="1" relative="1" as="geometry">
            <mxPoint as="offset" />
          </mxGeometry>
        </mxCell>
        <mxCell id="zlBRK5w3M_IOJP67CKGf-23" value="tokenService" style="rounded=0;whiteSpace=wrap;html=1;fontSize=16;" vertex="1" parent="1">
          <mxGeometry x="1085" y="1126" width="350" height="50" as="geometry" />
        </mxCell>
        <mxCell id="zlBRK5w3M_IOJP67CKGf-24" value="redis" style="rounded=0;whiteSpace=wrap;html=1;fontSize=16;" vertex="1" parent="1">
          <mxGeometry x="1085" y="1236" width="150" height="50" as="geometry" />
        </mxCell>
        <mxCell id="zlBRK5w3M_IOJP67CKGf-25" value="Ummp-gateway" style="rounded=0;whiteSpace=wrap;html=1;fontSize=16;" vertex="1" parent="1">
          <mxGeometry x="1085" y="1376" width="270" height="50" as="geometry" />
        </mxCell>
        <mxCell id="zlBRK5w3M_IOJP67CKGf-26" value="一级能开" style="rounded=0;whiteSpace=wrap;html=1;fontSize=16;" vertex="1" parent="1">
          <mxGeometry x="1065" y="1536" width="390" height="50" as="geometry" />
        </mxCell>
        <mxCell id="zlBRK5w3M_IOJP67CKGf-27" value="缓&lt;br&gt;存&lt;br&gt;token" style="shape=doubleArrow;direction=south;whiteSpace=wrap;html=1;" vertex="1" parent="1">
          <mxGeometry x="1130" y="1176" width="60" height="60" as="geometry" />
        </mxCell>
        <mxCell id="zlBRK5w3M_IOJP67CKGf-28" style="edgeStyle=orthogonalEdgeStyle;rounded=0;orthogonalLoop=1;jettySize=auto;html=1;entryX=0.5;entryY=0;entryDx=0;entryDy=0;startArrow=classic;startFill=1;endArrow=none;endFill=0;dashed=1;" edge="1" parent="1">
          <mxGeometry relative="1" as="geometry">
            <mxPoint x="1328" y="1176" as="sourcePoint" />
            <mxPoint x="1328" y="1376" as="targetPoint" />
            <Array as="points">
              <mxPoint x="1328" y="1316" />
              <mxPoint x="1328" y="1316" />
            </Array>
          </mxGeometry>
        </mxCell>
        <mxCell id="zlBRK5w3M_IOJP67CKGf-29" value="token" style="edgeLabel;html=1;align=center;verticalAlign=middle;resizable=0;points=[];" vertex="1" connectable="0" parent="zlBRK5w3M_IOJP67CKGf-28">
          <mxGeometry x="0.29" y="-1" relative="1" as="geometry">
            <mxPoint as="offset" />
          </mxGeometry>
        </mxCell>
        <mxCell id="zlBRK5w3M_IOJP67CKGf-30" style="edgeStyle=orthogonalEdgeStyle;rounded=0;orthogonalLoop=1;jettySize=auto;html=1;entryX=0.851;entryY=0;entryDx=0;entryDy=0;entryPerimeter=0;startArrow=classic;startFill=1;endArrow=none;endFill=0;dashed=1;" edge="1" parent="1">
          <mxGeometry relative="1" as="geometry">
            <mxPoint x="1420" y="1177" as="sourcePoint" />
            <mxPoint x="1419.8899999999999" y="1537" as="targetPoint" />
            <Array as="points">
              <mxPoint x="1420" y="1277" />
              <mxPoint x="1420" y="1277" />
            </Array>
          </mxGeometry>
        </mxCell>
        <mxCell id="zlBRK5w3M_IOJP67CKGf-31" value="token" style="edgeLabel;html=1;align=center;verticalAlign=middle;resizable=0;points=[];" vertex="1" connectable="0" parent="zlBRK5w3M_IOJP67CKGf-30">
          <mxGeometry x="0.0833" y="1" relative="1" as="geometry">
            <mxPoint as="offset" />
          </mxGeometry>
        </mxCell>
        <mxCell id="zlBRK5w3M_IOJP67CKGf-32" value="" style="rounded=0;whiteSpace=wrap;html=1;" vertex="1" parent="1">
          <mxGeometry x="1425" y="1710" width="390" height="396" as="geometry" />
        </mxCell>
        <mxCell id="zlBRK5w3M_IOJP67CKGf-33" value="苏州机房" style="text;html=1;align=center;verticalAlign=middle;resizable=0;points=[];autosize=1;strokeColor=none;fillColor=none;fontSize=16;" vertex="1" parent="1">
          <mxGeometry x="1420" y="1716" width="90" height="30" as="geometry" />
        </mxCell>
        <mxCell id="zlBRK5w3M_IOJP67CKGf-34" style="edgeStyle=orthogonalEdgeStyle;rounded=0;orthogonalLoop=1;jettySize=auto;html=1;entryX=0.5;entryY=0;entryDx=0;entryDy=0;" edge="1" parent="1">
          <mxGeometry relative="1" as="geometry">
            <mxPoint x="1653" y="1806" as="sourcePoint" />
            <mxPoint x="1653" y="2006" as="targetPoint" />
            <Array as="points">
              <mxPoint x="1653" y="1946" />
              <mxPoint x="1653" y="1946" />
            </Array>
          </mxGeometry>
        </mxCell>
        <mxCell id="zlBRK5w3M_IOJP67CKGf-35" value="getToken" style="edgeLabel;html=1;align=center;verticalAlign=middle;resizable=0;points=[];" vertex="1" connectable="0" parent="zlBRK5w3M_IOJP67CKGf-34">
          <mxGeometry x="-0.18" y="-3" relative="1" as="geometry">
            <mxPoint as="offset" />
          </mxGeometry>
        </mxCell>
        <mxCell id="zlBRK5w3M_IOJP67CKGf-36" style="edgeStyle=orthogonalEdgeStyle;rounded=0;orthogonalLoop=1;jettySize=auto;html=1;entryX=0.851;entryY=0;entryDx=0;entryDy=0;entryPerimeter=0;" edge="1" parent="1">
          <mxGeometry relative="1" as="geometry">
            <mxPoint x="1750" y="1806" as="sourcePoint" />
            <mxPoint x="1749.8899999999999" y="2166" as="targetPoint" />
            <Array as="points">
              <mxPoint x="1750" y="1906" />
              <mxPoint x="1750" y="1906" />
            </Array>
          </mxGeometry>
        </mxCell>
        <mxCell id="zlBRK5w3M_IOJP67CKGf-37" value="getToken" style="edgeLabel;html=1;align=center;verticalAlign=middle;resizable=0;points=[];" vertex="1" connectable="0" parent="zlBRK5w3M_IOJP67CKGf-36">
          <mxGeometry x="-0.5833" y="1" relative="1" as="geometry">
            <mxPoint as="offset" />
          </mxGeometry>
        </mxCell>
        <mxCell id="zlBRK5w3M_IOJP67CKGf-57" style="edgeStyle=orthogonalEdgeStyle;rounded=0;orthogonalLoop=1;jettySize=auto;html=1;entryX=0.817;entryY=0.02;entryDx=0;entryDy=0;entryPerimeter=0;endArrow=none;endFill=0;startArrow=classic;startFill=1;dashed=1;" edge="1" parent="1">
          <mxGeometry relative="1" as="geometry">
            <mxPoint x="1444" y="1797" as="sourcePoint" />
            <mxPoint x="1239.9499999999998" y="2004" as="targetPoint" />
            <Array as="points">
              <mxPoint x="1240" y="1797" />
            </Array>
          </mxGeometry>
        </mxCell>
        <mxCell id="zlBRK5w3M_IOJP67CKGf-61" value="token" style="edgeLabel;html=1;align=center;verticalAlign=middle;resizable=0;points=[];" vertex="1" connectable="0" parent="zlBRK5w3M_IOJP67CKGf-57">
          <mxGeometry x="-0.1192" relative="1" as="geometry">
            <mxPoint as="offset" />
          </mxGeometry>
        </mxCell>
        <mxCell id="zlBRK5w3M_IOJP67CKGf-38" value="tokenService" style="rounded=0;whiteSpace=wrap;html=1;fontSize=16;" vertex="1" parent="1">
          <mxGeometry x="1445" y="1756" width="350" height="50" as="geometry" />
        </mxCell>
        <mxCell id="zlBRK5w3M_IOJP67CKGf-39" value="redis" style="rounded=0;whiteSpace=wrap;html=1;fontSize=16;" vertex="1" parent="1">
          <mxGeometry x="1445" y="1866" width="150" height="50" as="geometry" />
        </mxCell>
        <mxCell id="zlBRK5w3M_IOJP67CKGf-40" value="Ummp-gateway" style="rounded=0;whiteSpace=wrap;html=1;fontSize=16;" vertex="1" parent="1">
          <mxGeometry x="1445" y="2006" width="270" height="50" as="geometry" />
        </mxCell>
        <mxCell id="zlBRK5w3M_IOJP67CKGf-41" value="一级能开" style="rounded=0;whiteSpace=wrap;html=1;fontSize=16;" vertex="1" parent="1">
          <mxGeometry x="1425" y="2166" width="390" height="50" as="geometry" />
        </mxCell>
        <mxCell id="zlBRK5w3M_IOJP67CKGf-42" value="缓&lt;br&gt;存&lt;br&gt;token" style="shape=doubleArrow;direction=south;whiteSpace=wrap;html=1;" vertex="1" parent="1">
          <mxGeometry x="1490" y="1806" width="60" height="60" as="geometry" />
        </mxCell>
        <mxCell id="zlBRK5w3M_IOJP67CKGf-43" style="edgeStyle=orthogonalEdgeStyle;rounded=0;orthogonalLoop=1;jettySize=auto;html=1;entryX=0.5;entryY=0;entryDx=0;entryDy=0;startArrow=classic;startFill=1;endArrow=none;endFill=0;dashed=1;" edge="1" parent="1">
          <mxGeometry relative="1" as="geometry">
            <mxPoint x="1688" y="1806" as="sourcePoint" />
            <mxPoint x="1688" y="2006" as="targetPoint" />
            <Array as="points">
              <mxPoint x="1688" y="1946" />
              <mxPoint x="1688" y="1946" />
            </Array>
          </mxGeometry>
        </mxCell>
        <mxCell id="zlBRK5w3M_IOJP67CKGf-44" value="token" style="edgeLabel;html=1;align=center;verticalAlign=middle;resizable=0;points=[];" vertex="1" connectable="0" parent="zlBRK5w3M_IOJP67CKGf-43">
          <mxGeometry x="0.29" y="-1" relative="1" as="geometry">
            <mxPoint as="offset" />
          </mxGeometry>
        </mxCell>
        <mxCell id="zlBRK5w3M_IOJP67CKGf-45" style="edgeStyle=orthogonalEdgeStyle;rounded=0;orthogonalLoop=1;jettySize=auto;html=1;entryX=0.851;entryY=0;entryDx=0;entryDy=0;entryPerimeter=0;startArrow=classic;startFill=1;endArrow=none;endFill=0;dashed=1;" edge="1" parent="1">
          <mxGeometry relative="1" as="geometry">
            <mxPoint x="1780" y="1807" as="sourcePoint" />
            <mxPoint x="1779.8899999999999" y="2167" as="targetPoint" />
            <Array as="points">
              <mxPoint x="1780" y="1907" />
              <mxPoint x="1780" y="1907" />
            </Array>
          </mxGeometry>
        </mxCell>
        <mxCell id="zlBRK5w3M_IOJP67CKGf-46" value="token" style="edgeLabel;html=1;align=center;verticalAlign=middle;resizable=0;points=[];" vertex="1" connectable="0" parent="zlBRK5w3M_IOJP67CKGf-45">
          <mxGeometry x="0.0833" y="1" relative="1" as="geometry">
            <mxPoint as="offset" />
          </mxGeometry>
        </mxCell>
        <mxCell id="zlBRK5w3M_IOJP67CKGf-52" value="呼池" style="text;html=1;align=center;verticalAlign=middle;resizable=0;points=[];autosize=1;strokeColor=none;fillColor=none;fontSize=16;" vertex="1" parent="1">
          <mxGeometry x="945" y="1711" width="60" height="30" as="geometry" />
        </mxCell>
        <mxCell id="zlBRK5w3M_IOJP67CKGf-75" style="edgeStyle=orthogonalEdgeStyle;rounded=0;orthogonalLoop=1;jettySize=auto;html=1;entryX=0.5;entryY=1;entryDx=0;entryDy=0;" edge="1" parent="1" source="zlBRK5w3M_IOJP67CKGf-54" target="zlBRK5w3M_IOJP67CKGf-68">
          <mxGeometry relative="1" as="geometry">
            <Array as="points">
              <mxPoint x="1070" y="1990" />
              <mxPoint x="1070" y="1990" />
            </Array>
          </mxGeometry>
        </mxCell>
        <mxCell id="zlBRK5w3M_IOJP67CKGf-77" value="read tokenService url" style="edgeLabel;html=1;align=center;verticalAlign=middle;resizable=0;points=[];" vertex="1" connectable="0" parent="zlBRK5w3M_IOJP67CKGf-75">
          <mxGeometry x="0.0357" y="1" relative="1" as="geometry">
            <mxPoint as="offset" />
          </mxGeometry>
        </mxCell>
        <mxCell id="zlBRK5w3M_IOJP67CKGf-54" value="Ummp-gateway" style="rounded=0;whiteSpace=wrap;html=1;fontSize=16;" vertex="1" parent="1">
          <mxGeometry x="955" y="2006" width="350" height="50" as="geometry" />
        </mxCell>
        <mxCell id="zlBRK5w3M_IOJP67CKGf-59" style="edgeStyle=orthogonalEdgeStyle;rounded=0;orthogonalLoop=1;jettySize=auto;html=1;" edge="1" parent="1">
          <mxGeometry relative="1" as="geometry">
            <mxPoint x="1445" y="1776" as="sourcePoint" />
            <mxPoint x="1195" y="2006" as="targetPoint" />
            <Array as="points">
              <mxPoint x="1195" y="1776" />
            </Array>
          </mxGeometry>
        </mxCell>
        <mxCell id="zlBRK5w3M_IOJP67CKGf-60" value="getToken" style="edgeLabel;html=1;align=center;verticalAlign=middle;resizable=0;points=[];" vertex="1" connectable="0" parent="zlBRK5w3M_IOJP67CKGf-59">
          <mxGeometry x="-0.5625" y="1" relative="1" as="geometry">
            <mxPoint as="offset" />
          </mxGeometry>
        </mxCell>
        <mxCell id="zlBRK5w3M_IOJP67CKGf-62" value="eureka" style="rounded=0;whiteSpace=wrap;html=1;fontSize=16;" vertex="1" parent="1">
          <mxGeometry x="1490" y="640" width="230" height="50" as="geometry" />
        </mxCell>
        <mxCell id="zlBRK5w3M_IOJP67CKGf-66" style="edgeStyle=orthogonalEdgeStyle;rounded=0;orthogonalLoop=1;jettySize=auto;html=1;entryX=0.5;entryY=0;entryDx=0;entryDy=0;" edge="1" parent="1" source="zlBRK5w3M_IOJP67CKGf-65" target="zlBRK5w3M_IOJP67CKGf-62">
          <mxGeometry relative="1" as="geometry" />
        </mxCell>
        <mxCell id="zlBRK5w3M_IOJP67CKGf-67" value="write tokenservice url" style="edgeLabel;html=1;align=center;verticalAlign=middle;resizable=0;points=[];" vertex="1" connectable="0" parent="zlBRK5w3M_IOJP67CKGf-66">
          <mxGeometry y="3" relative="1" as="geometry">
            <mxPoint as="offset" />
          </mxGeometry>
        </mxCell>
        <mxCell id="zlBRK5w3M_IOJP67CKGf-65" value="register" style="rounded=0;whiteSpace=wrap;html=1;fontSize=16;" vertex="1" parent="1">
          <mxGeometry x="1490" y="530" width="230" height="50" as="geometry" />
        </mxCell>
        <mxCell id="zlBRK5w3M_IOJP67CKGf-68" value="eureka" style="rounded=0;whiteSpace=wrap;html=1;fontSize=16;" vertex="1" parent="1">
          <mxGeometry x="955" y="1900" width="230" height="50" as="geometry" />
        </mxCell>
        <mxCell id="zlBRK5w3M_IOJP67CKGf-72" style="edgeStyle=orthogonalEdgeStyle;rounded=0;orthogonalLoop=1;jettySize=auto;html=1;entryX=0.5;entryY=0;entryDx=0;entryDy=0;" edge="1" parent="1" source="zlBRK5w3M_IOJP67CKGf-69" target="zlBRK5w3M_IOJP67CKGf-68">
          <mxGeometry relative="1" as="geometry" />
        </mxCell>
        <mxCell id="zlBRK5w3M_IOJP67CKGf-76" value="write tokenservice url" style="edgeLabel;html=1;align=center;verticalAlign=middle;resizable=0;points=[];" vertex="1" connectable="0" parent="zlBRK5w3M_IOJP67CKGf-72">
          <mxGeometry x="-0.1667" y="-2" relative="1" as="geometry">
            <mxPoint as="offset" />
          </mxGeometry>
        </mxCell>
        <mxCell id="zlBRK5w3M_IOJP67CKGf-69" value="register" style="rounded=0;whiteSpace=wrap;html=1;fontSize=16;" vertex="1" parent="1">
          <mxGeometry x="955" y="1790" width="230" height="50" as="geometry" />
        </mxCell>
      </root>
    </mxGraphModel>
  </diagram>
  <diagram id="Z5Cji4mr2ZnYC5pOb-MR" name="用例图">
    <mxGraphModel dx="2508" dy="257" grid="1" gridSize="10" guides="1" tooltips="1" connect="1" arrows="1" fold="1" page="1" pageScale="1" pageWidth="827" pageHeight="1169" math="0" shadow="0">
      <root>
        <mxCell id="0" />
        <mxCell id="1" parent="0" />
        <mxCell id="3z39wp8mKlz91IdqLbLT-1" value="tokenService" style="shape=umlActor;verticalLabelPosition=bottom;verticalAlign=top;html=1;" parent="1" vertex="1">
          <mxGeometry x="880" y="1610" width="30" height="60" as="geometry" />
        </mxCell>
        <mxCell id="3z39wp8mKlz91IdqLbLT-4" value="GetToken" style="ellipse;whiteSpace=wrap;html=1;" parent="1" vertex="1">
          <mxGeometry x="1050" y="1460" width="140" height="70" as="geometry" />
        </mxCell>
        <mxCell id="3z39wp8mKlz91IdqLbLT-5" value="SetTokenToRedis" style="ellipse;whiteSpace=wrap;html=1;" parent="1" vertex="1">
          <mxGeometry x="1090" y="1560" width="140" height="70" as="geometry" />
        </mxCell>
        <mxCell id="3z39wp8mKlz91IdqLbLT-6" value="RefreshToken" style="ellipse;whiteSpace=wrap;html=1;" parent="1" vertex="1">
          <mxGeometry x="1080" y="1670" width="140" height="70" as="geometry" />
        </mxCell>
        <mxCell id="3z39wp8mKlz91IdqLbLT-7" value="SyncToken" style="ellipse;whiteSpace=wrap;html=1;" parent="1" vertex="1">
          <mxGeometry x="1030" y="1770" width="140" height="70" as="geometry" />
        </mxCell>
        <mxCell id="3z39wp8mKlz91IdqLbLT-9" value="" style="endArrow=classic;html=1;rounded=0;exitX=1;exitY=0.3333333333333333;exitDx=0;exitDy=0;exitPerimeter=0;entryX=0;entryY=0.5;entryDx=0;entryDy=0;" parent="1" source="3z39wp8mKlz91IdqLbLT-1" target="3z39wp8mKlz91IdqLbLT-4" edge="1">
          <mxGeometry width="50" height="50" relative="1" as="geometry">
            <mxPoint x="890" y="1540" as="sourcePoint" />
            <mxPoint x="940" y="1490" as="targetPoint" />
          </mxGeometry>
        </mxCell>
        <mxCell id="3z39wp8mKlz91IdqLbLT-10" value="" style="endArrow=classic;html=1;rounded=0;entryX=0;entryY=0.5;entryDx=0;entryDy=0;exitX=0.8;exitY=0.35;exitDx=0;exitDy=0;exitPerimeter=0;" parent="1" source="3z39wp8mKlz91IdqLbLT-1" target="3z39wp8mKlz91IdqLbLT-5" edge="1">
          <mxGeometry width="50" height="50" relative="1" as="geometry">
            <mxPoint x="950" y="1620" as="sourcePoint" />
            <mxPoint x="1060" y="1505" as="targetPoint" />
          </mxGeometry>
        </mxCell>
        <mxCell id="3z39wp8mKlz91IdqLbLT-11" value="" style="endArrow=classic;html=1;rounded=0;exitX=1;exitY=0.3333333333333333;exitDx=0;exitDy=0;exitPerimeter=0;" parent="1" source="3z39wp8mKlz91IdqLbLT-1" target="3z39wp8mKlz91IdqLbLT-6" edge="1">
          <mxGeometry width="50" height="50" relative="1" as="geometry">
            <mxPoint x="960" y="1630" as="sourcePoint" />
            <mxPoint x="1100" y="1605" as="targetPoint" />
          </mxGeometry>
        </mxCell>
        <mxCell id="3z39wp8mKlz91IdqLbLT-12" value="" style="endArrow=classic;html=1;rounded=0;exitX=1;exitY=0.3333333333333333;exitDx=0;exitDy=0;exitPerimeter=0;entryX=0;entryY=0;entryDx=0;entryDy=0;" parent="1" source="3z39wp8mKlz91IdqLbLT-1" target="3z39wp8mKlz91IdqLbLT-7" edge="1">
          <mxGeometry width="50" height="50" relative="1" as="geometry">
            <mxPoint x="960" y="1630" as="sourcePoint" />
            <mxPoint x="1107" y="1692" as="targetPoint" />
          </mxGeometry>
        </mxCell>
        <mxCell id="3z39wp8mKlz91IdqLbLT-15" value="OSPS001" style="ellipse;whiteSpace=wrap;html=1;" parent="1" vertex="1">
          <mxGeometry x="1350" y="1520" width="140" height="70" as="geometry" />
        </mxCell>
        <mxCell id="3z39wp8mKlz91IdqLbLT-16" value="ummp-gateway" style="shape=umlActor;verticalLabelPosition=bottom;verticalAlign=top;html=1;" parent="1" vertex="1">
          <mxGeometry x="1620" y="1620" width="30" height="60" as="geometry" />
        </mxCell>
        <mxCell id="3z39wp8mKlz91IdqLbLT-19" value="RPC接口接收tongken" style="ellipse;whiteSpace=wrap;html=1;" parent="1" vertex="1">
          <mxGeometry x="1360" y="1690" width="140" height="70" as="geometry" />
        </mxCell>
        <mxCell id="3z39wp8mKlz91IdqLbLT-20" value="" style="endArrow=classic;html=1;rounded=0;entryX=1;entryY=0.5;entryDx=0;entryDy=0;exitX=0.8;exitY=0.35;exitDx=0;exitDy=0;exitPerimeter=0;" parent="1" target="3z39wp8mKlz91IdqLbLT-15" edge="1">
          <mxGeometry width="50" height="50" relative="1" as="geometry">
            <mxPoint x="1620" y="1646" as="sourcePoint" />
            <mxPoint x="1806" y="1610" as="targetPoint" />
          </mxGeometry>
        </mxCell>
        <mxCell id="3z39wp8mKlz91IdqLbLT-21" value="" style="endArrow=classic;html=1;rounded=0;entryX=1;entryY=0.5;entryDx=0;entryDy=0;exitX=0.8;exitY=0.35;exitDx=0;exitDy=0;exitPerimeter=0;" parent="1" target="3z39wp8mKlz91IdqLbLT-19" edge="1">
          <mxGeometry width="50" height="50" relative="1" as="geometry">
            <mxPoint x="1630" y="1656" as="sourcePoint" />
            <mxPoint x="1500" y="1565" as="targetPoint" />
          </mxGeometry>
        </mxCell>
        <mxCell id="3z39wp8mKlz91IdqLbLT-22" value="Use" style="endArrow=open;endSize=12;dashed=1;html=1;rounded=0;" parent="1" target="3z39wp8mKlz91IdqLbLT-15" edge="1">
          <mxGeometry width="160" relative="1" as="geometry">
            <mxPoint x="1190" y="1494.5" as="sourcePoint" />
            <mxPoint x="1350" y="1494.5" as="targetPoint" />
          </mxGeometry>
        </mxCell>
        <mxCell id="3z39wp8mKlz91IdqLbLT-23" value="Use" style="endArrow=open;endSize=12;dashed=1;html=1;rounded=0;entryX=0;entryY=0.5;entryDx=0;entryDy=0;" parent="1" target="3z39wp8mKlz91IdqLbLT-19" edge="1">
          <mxGeometry width="160" relative="1" as="geometry">
            <mxPoint x="1170" y="1810" as="sourcePoint" />
            <mxPoint x="1338" y="1854.5" as="targetPoint" />
          </mxGeometry>
        </mxCell>
        <mxCell id="3z39wp8mKlz91IdqLbLT-38" value="Pool" style="swimlane;childLayout=stackLayout;resizeParent=1;resizeParentMax=0;startSize=20;horizontal=0;horizontalStack=1;" parent="1" vertex="1">
          <mxGeometry x="530" y="1930" width="570" height="570" as="geometry" />
        </mxCell>
        <mxCell id="3z39wp8mKlz91IdqLbLT-39" value="tokenservice" style="swimlane;startSize=20;" parent="3z39wp8mKlz91IdqLbLT-38" vertex="1">
          <mxGeometry x="20" width="250" height="570" as="geometry" />
        </mxCell>
        <mxCell id="3z39wp8mKlz91IdqLbLT-49" style="edgeStyle=orthogonalEdgeStyle;rounded=0;orthogonalLoop=1;jettySize=auto;html=1;" parent="3z39wp8mKlz91IdqLbLT-39" source="3z39wp8mKlz91IdqLbLT-45" target="3z39wp8mKlz91IdqLbLT-48" edge="1">
          <mxGeometry relative="1" as="geometry" />
        </mxCell>
        <mxCell id="3z39wp8mKlz91IdqLbLT-45" value="" style="ellipse;html=1;shape=startState;fillColor=#000000;strokeColor=#ff0000;" parent="3z39wp8mKlz91IdqLbLT-39" vertex="1">
          <mxGeometry x="55" y="30" width="30" height="30" as="geometry" />
        </mxCell>
        <mxCell id="3z39wp8mKlz91IdqLbLT-54" style="edgeStyle=orthogonalEdgeStyle;rounded=0;orthogonalLoop=1;jettySize=auto;html=1;exitX=0.5;exitY=1;exitDx=0;exitDy=0;" parent="3z39wp8mKlz91IdqLbLT-39" source="3z39wp8mKlz91IdqLbLT-48" target="3z39wp8mKlz91IdqLbLT-50" edge="1">
          <mxGeometry relative="1" as="geometry" />
        </mxCell>
        <mxCell id="3z39wp8mKlz91IdqLbLT-48" value="获取分布式锁" style="rounded=1;whiteSpace=wrap;html=1;" parent="3z39wp8mKlz91IdqLbLT-39" vertex="1">
          <mxGeometry x="40" y="90" width="60" height="36" as="geometry" />
        </mxCell>
        <mxCell id="3z39wp8mKlz91IdqLbLT-52" style="edgeStyle=orthogonalEdgeStyle;rounded=0;orthogonalLoop=1;jettySize=auto;html=1;" parent="3z39wp8mKlz91IdqLbLT-39" source="3z39wp8mKlz91IdqLbLT-50" target="3z39wp8mKlz91IdqLbLT-51" edge="1">
          <mxGeometry relative="1" as="geometry" />
        </mxCell>
        <mxCell id="3z39wp8mKlz91IdqLbLT-53" value="否" style="edgeLabel;html=1;align=center;verticalAlign=middle;resizable=0;points=[];" parent="3z39wp8mKlz91IdqLbLT-52" vertex="1" connectable="0">
          <mxGeometry x="-0.1126" y="2" relative="1" as="geometry">
            <mxPoint as="offset" />
          </mxGeometry>
        </mxCell>
        <mxCell id="3z39wp8mKlz91IdqLbLT-89" style="edgeStyle=orthogonalEdgeStyle;rounded=0;orthogonalLoop=1;jettySize=auto;html=1;exitX=1;exitY=0.5;exitDx=0;exitDy=0;entryX=0;entryY=0.5;entryDx=0;entryDy=0;" parent="3z39wp8mKlz91IdqLbLT-39" source="3z39wp8mKlz91IdqLbLT-50" target="3z39wp8mKlz91IdqLbLT-55" edge="1">
          <mxGeometry relative="1" as="geometry" />
        </mxCell>
        <mxCell id="3z39wp8mKlz91IdqLbLT-50" value="成功" style="rhombus;whiteSpace=wrap;html=1;" parent="3z39wp8mKlz91IdqLbLT-39" vertex="1">
          <mxGeometry x="35" y="150" width="70" height="30" as="geometry" />
        </mxCell>
        <mxCell id="3z39wp8mKlz91IdqLbLT-51" value="" style="ellipse;html=1;shape=endState;fillColor=#000000;strokeColor=#ff0000;" parent="3z39wp8mKlz91IdqLbLT-39" vertex="1">
          <mxGeometry x="55" y="540" width="30" height="30" as="geometry" />
        </mxCell>
        <mxCell id="3z39wp8mKlz91IdqLbLT-90" style="edgeStyle=orthogonalEdgeStyle;rounded=0;orthogonalLoop=1;jettySize=auto;html=1;entryX=0.5;entryY=0;entryDx=0;entryDy=0;" parent="3z39wp8mKlz91IdqLbLT-39" source="3z39wp8mKlz91IdqLbLT-55" target="3z39wp8mKlz91IdqLbLT-56" edge="1">
          <mxGeometry relative="1" as="geometry" />
        </mxCell>
        <mxCell id="3z39wp8mKlz91IdqLbLT-55" value="校验token ttl" style="rounded=1;whiteSpace=wrap;html=1;" parent="3z39wp8mKlz91IdqLbLT-39" vertex="1">
          <mxGeometry x="140" y="147" width="60" height="36" as="geometry" />
        </mxCell>
        <mxCell id="3z39wp8mKlz91IdqLbLT-91" style="edgeStyle=orthogonalEdgeStyle;rounded=0;orthogonalLoop=1;jettySize=auto;html=1;entryX=0.5;entryY=0;entryDx=0;entryDy=0;" parent="3z39wp8mKlz91IdqLbLT-39" source="3z39wp8mKlz91IdqLbLT-56" target="3z39wp8mKlz91IdqLbLT-82" edge="1">
          <mxGeometry relative="1" as="geometry" />
        </mxCell>
        <mxCell id="3z39wp8mKlz91IdqLbLT-108" value="否" style="edgeLabel;html=1;align=center;verticalAlign=middle;resizable=0;points=[];" parent="3z39wp8mKlz91IdqLbLT-91" vertex="1" connectable="0">
          <mxGeometry x="-0.1867" y="1" relative="1" as="geometry">
            <mxPoint as="offset" />
          </mxGeometry>
        </mxCell>
        <mxCell id="3z39wp8mKlz91IdqLbLT-56" value="ttl&amp;gt;60m" style="rhombus;whiteSpace=wrap;html=1;" parent="3z39wp8mKlz91IdqLbLT-39" vertex="1">
          <mxGeometry x="135" y="210" width="70" height="30" as="geometry" />
        </mxCell>
        <mxCell id="3z39wp8mKlz91IdqLbLT-82" value="获取能开token" style="rounded=1;whiteSpace=wrap;html=1;" parent="3z39wp8mKlz91IdqLbLT-39" vertex="1">
          <mxGeometry x="140" y="290" width="60" height="36" as="geometry" />
        </mxCell>
        <mxCell id="3z39wp8mKlz91IdqLbLT-85" value="同步新token" style="rounded=1;whiteSpace=wrap;html=1;" parent="3z39wp8mKlz91IdqLbLT-39" vertex="1">
          <mxGeometry x="140" y="400" width="60" height="36" as="geometry" />
        </mxCell>
        <mxCell id="3z39wp8mKlz91IdqLbLT-87" value="同步当前redis中token" style="rounded=1;whiteSpace=wrap;html=1;" parent="3z39wp8mKlz91IdqLbLT-39" vertex="1">
          <mxGeometry x="130" y="464" width="70" height="36" as="geometry" />
        </mxCell>
        <mxCell id="3z39wp8mKlz91IdqLbLT-40" value="呼池Gateway" style="swimlane;startSize=20;" parent="3z39wp8mKlz91IdqLbLT-38" vertex="1">
          <mxGeometry x="270" width="150" height="570" as="geometry">
            <mxRectangle x="140" width="40" height="520" as="alternateBounds" />
          </mxGeometry>
        </mxCell>
        <mxCell id="3z39wp8mKlz91IdqLbLT-93" style="edgeStyle=orthogonalEdgeStyle;rounded=0;orthogonalLoop=1;jettySize=auto;html=1;exitX=0.5;exitY=1;exitDx=0;exitDy=0;" parent="3z39wp8mKlz91IdqLbLT-40" source="3z39wp8mKlz91IdqLbLT-83" target="3z39wp8mKlz91IdqLbLT-84" edge="1">
          <mxGeometry relative="1" as="geometry" />
        </mxCell>
        <mxCell id="3z39wp8mKlz91IdqLbLT-83" value="OSPS001" style="rounded=1;whiteSpace=wrap;html=1;" parent="3z39wp8mKlz91IdqLbLT-40" vertex="1">
          <mxGeometry x="45" y="290" width="60" height="36" as="geometry" />
        </mxCell>
        <mxCell id="3z39wp8mKlz91IdqLbLT-84" value="成功" style="rhombus;whiteSpace=wrap;html=1;" parent="3z39wp8mKlz91IdqLbLT-40" vertex="1">
          <mxGeometry x="40" y="350" width="70" height="30" as="geometry" />
        </mxCell>
        <mxCell id="3z39wp8mKlz91IdqLbLT-41" value="苏州Gateway" style="swimlane;startSize=20;" parent="3z39wp8mKlz91IdqLbLT-38" vertex="1">
          <mxGeometry x="420" width="150" height="570" as="geometry" />
        </mxCell>
        <mxCell id="3z39wp8mKlz91IdqLbLT-57" value="接收token" style="rounded=1;whiteSpace=wrap;html=1;" parent="3z39wp8mKlz91IdqLbLT-41" vertex="1">
          <mxGeometry x="50" y="207" width="60" height="36" as="geometry" />
        </mxCell>
        <mxCell id="3z39wp8mKlz91IdqLbLT-111" style="edgeStyle=orthogonalEdgeStyle;rounded=0;orthogonalLoop=1;jettySize=auto;html=1;" parent="3z39wp8mKlz91IdqLbLT-41" source="3z39wp8mKlz91IdqLbLT-86" edge="1">
          <mxGeometry relative="1" as="geometry">
            <mxPoint x="130" y="418" as="targetPoint" />
          </mxGeometry>
        </mxCell>
        <mxCell id="3z39wp8mKlz91IdqLbLT-86" value="接收token" style="rounded=1;whiteSpace=wrap;html=1;" parent="3z39wp8mKlz91IdqLbLT-41" vertex="1">
          <mxGeometry x="45" y="400" width="60" height="36" as="geometry" />
        </mxCell>
        <mxCell id="3z39wp8mKlz91IdqLbLT-110" style="edgeStyle=orthogonalEdgeStyle;rounded=0;orthogonalLoop=1;jettySize=auto;html=1;exitX=1;exitY=0.5;exitDx=0;exitDy=0;" parent="3z39wp8mKlz91IdqLbLT-41" source="3z39wp8mKlz91IdqLbLT-88" edge="1">
          <mxGeometry relative="1" as="geometry">
            <mxPoint x="130" y="525.3333333333335" as="targetPoint" />
          </mxGeometry>
        </mxCell>
        <mxCell id="3z39wp8mKlz91IdqLbLT-88" value="接收token" style="rounded=1;whiteSpace=wrap;html=1;" parent="3z39wp8mKlz91IdqLbLT-41" vertex="1">
          <mxGeometry x="50" y="510" width="60" height="30" as="geometry" />
        </mxCell>
        <mxCell id="3z39wp8mKlz91IdqLbLT-60" style="edgeStyle=orthogonalEdgeStyle;rounded=0;orthogonalLoop=1;jettySize=auto;html=1;entryX=0;entryY=0.5;entryDx=0;entryDy=0;" parent="3z39wp8mKlz91IdqLbLT-38" source="3z39wp8mKlz91IdqLbLT-56" target="3z39wp8mKlz91IdqLbLT-57" edge="1">
          <mxGeometry relative="1" as="geometry" />
        </mxCell>
        <mxCell id="3z39wp8mKlz91IdqLbLT-61" value="是" style="edgeLabel;html=1;align=center;verticalAlign=middle;resizable=0;points=[];" parent="3z39wp8mKlz91IdqLbLT-60" vertex="1" connectable="0">
          <mxGeometry x="-0.2272" y="-1" relative="1" as="geometry">
            <mxPoint as="offset" />
          </mxGeometry>
        </mxCell>
        <mxCell id="3z39wp8mKlz91IdqLbLT-92" style="edgeStyle=orthogonalEdgeStyle;rounded=0;orthogonalLoop=1;jettySize=auto;html=1;" parent="3z39wp8mKlz91IdqLbLT-38" source="3z39wp8mKlz91IdqLbLT-82" target="3z39wp8mKlz91IdqLbLT-83" edge="1">
          <mxGeometry relative="1" as="geometry" />
        </mxCell>
        <mxCell id="3z39wp8mKlz91IdqLbLT-94" style="edgeStyle=orthogonalEdgeStyle;rounded=0;orthogonalLoop=1;jettySize=auto;html=1;entryX=0.5;entryY=0;entryDx=0;entryDy=0;" parent="3z39wp8mKlz91IdqLbLT-38" source="3z39wp8mKlz91IdqLbLT-84" target="3z39wp8mKlz91IdqLbLT-85" edge="1">
          <mxGeometry relative="1" as="geometry" />
        </mxCell>
        <mxCell id="3z39wp8mKlz91IdqLbLT-95" value="是" style="edgeLabel;html=1;align=center;verticalAlign=middle;resizable=0;points=[];" parent="3z39wp8mKlz91IdqLbLT-94" vertex="1" connectable="0">
          <mxGeometry x="-0.1011" y="1" relative="1" as="geometry">
            <mxPoint as="offset" />
          </mxGeometry>
        </mxCell>
        <mxCell id="3z39wp8mKlz91IdqLbLT-96" style="edgeStyle=orthogonalEdgeStyle;rounded=0;orthogonalLoop=1;jettySize=auto;html=1;entryX=0;entryY=0.5;entryDx=0;entryDy=0;" parent="3z39wp8mKlz91IdqLbLT-38" source="3z39wp8mKlz91IdqLbLT-85" target="3z39wp8mKlz91IdqLbLT-86" edge="1">
          <mxGeometry relative="1" as="geometry" />
        </mxCell>
        <mxCell id="3z39wp8mKlz91IdqLbLT-98" style="edgeStyle=orthogonalEdgeStyle;rounded=0;orthogonalLoop=1;jettySize=auto;html=1;entryX=1;entryY=0.5;entryDx=0;entryDy=0;exitX=0.5;exitY=1;exitDx=0;exitDy=0;" parent="3z39wp8mKlz91IdqLbLT-38" source="3z39wp8mKlz91IdqLbLT-84" target="3z39wp8mKlz91IdqLbLT-87" edge="1">
          <mxGeometry relative="1" as="geometry" />
        </mxCell>
        <mxCell id="3z39wp8mKlz91IdqLbLT-99" value="否" style="edgeLabel;html=1;align=center;verticalAlign=middle;resizable=0;points=[];" parent="3z39wp8mKlz91IdqLbLT-98" vertex="1" connectable="0">
          <mxGeometry x="-0.4537" y="-1" relative="1" as="geometry">
            <mxPoint as="offset" />
          </mxGeometry>
        </mxCell>
        <mxCell id="3z39wp8mKlz91IdqLbLT-107" style="edgeStyle=orthogonalEdgeStyle;rounded=0;orthogonalLoop=1;jettySize=auto;html=1;entryX=0;entryY=0.5;entryDx=0;entryDy=0;exitX=0.5;exitY=1;exitDx=0;exitDy=0;" parent="3z39wp8mKlz91IdqLbLT-38" source="3z39wp8mKlz91IdqLbLT-87" target="3z39wp8mKlz91IdqLbLT-88" edge="1">
          <mxGeometry relative="1" as="geometry" />
        </mxCell>
        <mxCell id="3z39wp8mKlz91IdqLbLT-109" style="edgeStyle=orthogonalEdgeStyle;rounded=0;orthogonalLoop=1;jettySize=auto;html=1;entryX=1;entryY=0.5;entryDx=0;entryDy=0;" parent="3z39wp8mKlz91IdqLbLT-38" source="3z39wp8mKlz91IdqLbLT-57" target="3z39wp8mKlz91IdqLbLT-51" edge="1">
          <mxGeometry relative="1" as="geometry">
            <Array as="points">
              <mxPoint x="550" y="225" />
              <mxPoint x="550" y="555" />
            </Array>
          </mxGeometry>
        </mxCell>
      </root>
    </mxGraphModel>
  </diagram>
</mxfile>
